<svg width="399" height="304" viewBox="0 0 399 304" fill="none" xmlns="http://www.w3.org/2000/svg">
<path d="M398.882 267.666H0V267.865H398.882V267.666Z" fill="#E0E0E0"/>
<path d="M63.6854 280.174H41.8506V280.373H63.6854V280.174Z" fill="#E0E0E0"/>
<path d="M75.8749 280.174H68.9424V280.373H75.8749V280.174Z" fill="#E0E0E0"/>
<path d="M199.441 277.422H183.996V277.621H199.441V277.422Z" fill="#E0E0E0"/>
<path d="M333.433 277.318H298.978V277.518H333.433V277.318Z" fill="#E0E0E0"/>
<path d="M345.591 277.318H340.541V277.518H345.591V277.318Z" fill="#E0E0E0"/>
<path d="M271.774 272.596H197.04V272.795H271.774V272.596Z" fill="#E0E0E0"/>
<path d="M189.07 232.086H35.0297C33.8229 232.084 32.6663 231.603 31.8138 230.749C30.9612 229.895 30.4824 228.737 30.4824 227.531V10.9939C30.4929 9.79404 30.9764 8.64682 31.8278 7.80138C32.6792 6.95594 33.8298 6.48057 35.0297 6.47852H189.07C190.278 6.47852 191.436 6.95844 192.291 7.81271C193.145 8.66698 193.625 9.82562 193.625 11.0337V227.531C193.625 228.739 193.145 229.897 192.291 230.752C191.436 231.606 190.278 232.086 189.07 232.086ZM35.0297 6.63807C33.8758 6.64018 32.77 7.10003 31.9548 7.91666C31.1397 8.7333 30.6819 9.84001 30.6819 10.9939V227.531C30.6819 228.685 31.1397 229.791 31.9548 230.608C32.77 231.425 33.8758 231.884 35.0297 231.886H189.07C190.224 231.884 191.331 231.425 192.147 230.608C192.964 229.792 193.423 228.685 193.426 227.531V10.9939C193.423 9.83928 192.964 8.73259 192.147 7.91618C191.331 7.09977 190.224 6.64018 189.07 6.63807H35.0297Z" fill="#E0E0E0"/>
<path d="M361.634 232.086H207.585C206.378 232.084 205.221 231.603 204.367 230.749C203.513 229.896 203.032 228.738 203.03 227.531V10.9939C203.043 9.79331 203.528 8.6461 204.381 7.80088C205.233 6.95566 206.385 6.48055 207.585 6.47852H361.634C362.832 6.48267 363.981 6.95897 364.83 7.80418C365.68 8.64939 366.162 9.79542 366.173 10.9939V227.531C366.173 228.736 365.695 229.892 364.844 230.746C363.993 231.6 362.839 232.082 361.634 232.086ZM207.585 6.63807C206.431 6.64018 205.324 7.09977 204.508 7.91618C203.691 8.73259 203.232 9.83928 203.23 10.9939V227.531C203.232 228.685 203.691 229.792 204.508 230.608C205.324 231.425 206.431 231.884 207.585 231.886H361.634C362.788 231.884 363.895 231.425 364.711 230.608C365.528 229.792 365.987 228.685 365.989 227.531V10.9939C365.987 9.83928 365.528 8.73259 364.711 7.91618C363.895 7.09977 362.788 6.64018 361.634 6.63807H207.585Z" fill="#E0E0E0"/>
<path d="M249.077 3.28678C249.079 2.41572 249.426 1.58094 250.042 0.965004C250.658 0.349068 251.493 0.00210657 252.364 0H354.741C355.612 0.00210657 356.447 0.349068 357.063 0.965004C357.679 1.58094 358.026 2.41572 358.028 3.28678V13.8412H249.077V3.28678Z" fill="#E0E0E0"/>
<path d="M273.162 6.90878C273.161 7.4014 273.305 7.88341 273.578 8.29377C273.85 8.70414 274.238 9.0244 274.693 9.21401C275.148 9.40362 275.648 9.45405 276.132 9.35892C276.615 9.26378 277.059 9.02736 277.408 8.67958C277.757 8.33181 277.995 7.88832 278.092 7.40528C278.188 6.92224 278.14 6.42137 277.951 5.9661C277.763 5.51083 277.444 5.12162 277.035 4.84777C276.625 4.57392 276.144 4.42774 275.651 4.42773C274.992 4.42773 274.361 4.68887 273.894 5.15393C273.427 5.61899 273.164 6.25003 273.162 6.90878Z" fill="white"/>
<path d="M264.355 6.90878C264.353 7.4014 264.498 7.88341 264.77 8.29377C265.043 8.70414 265.431 9.0244 265.885 9.21401C266.34 9.40362 266.841 9.45405 267.324 9.35892C267.808 9.26378 268.252 9.02736 268.601 8.67958C268.95 8.33181 269.187 7.88832 269.284 7.40528C269.381 6.92224 269.332 6.42137 269.144 5.9661C268.956 5.51083 268.637 5.12162 268.227 4.84777C267.818 4.57392 267.336 4.42774 266.844 4.42773C266.185 4.42773 265.553 4.68887 265.086 5.15393C264.62 5.61899 264.357 6.25003 264.355 6.90878Z" fill="white"/>
<path d="M255.548 6.90878C255.546 7.4014 255.691 7.88341 255.963 8.29377C256.236 8.70414 256.624 9.0244 257.079 9.21401C257.534 9.40362 258.034 9.45405 258.518 9.35892C259.001 9.26378 259.445 9.02736 259.794 8.67958C260.143 8.33181 260.381 7.88832 260.477 7.40528C260.574 6.92224 260.525 6.42137 260.337 5.9661C260.149 5.51083 259.83 5.12162 259.421 4.84777C259.011 4.57392 258.53 4.42774 258.037 4.42773C257.378 4.42773 256.746 4.68887 256.28 5.15393C255.813 5.61899 255.55 6.25003 255.548 6.90878Z" fill="white"/>
<path d="M354.741 85.098H252.364C251.493 85.0959 250.658 84.7489 250.042 84.133C249.426 83.5171 249.079 82.6823 249.077 81.8112V13.8418H358.028V81.8112C358.026 82.6823 357.679 83.5171 357.063 84.133C356.447 84.7489 355.612 85.0959 354.741 85.098Z" fill="#F0F0F0"/>
<path d="M241.723 14.2633C241.725 13.3923 242.072 12.5575 242.688 11.9416C243.304 11.3256 244.138 10.9787 245.009 10.9766H347.41C348.281 10.9787 349.116 11.3256 349.732 11.9416C350.348 12.5575 350.695 13.3923 350.697 14.2633V24.8257H241.723V14.2633Z" fill="#F0F0F0"/>
<path d="M265.831 17.9107C265.829 18.4037 265.974 18.886 266.247 19.2966C266.52 19.7071 266.909 20.0274 267.364 20.2167C267.819 20.4061 268.32 20.4561 268.804 20.3603C269.287 20.2645 269.731 20.0273 270.08 19.6787C270.429 19.3301 270.666 18.8859 270.762 18.4023C270.857 17.9188 270.807 17.4177 270.618 16.9625C270.429 16.5074 270.108 16.1187 269.698 15.8458C269.287 15.573 268.805 15.4281 268.312 15.4297C267.655 15.4318 267.025 15.6939 266.56 16.1587C266.095 16.6235 265.833 17.2534 265.831 17.9107Z" fill="#E0E0E0"/>
<path d="M257.023 17.9107C257.022 18.4033 257.167 18.8854 257.439 19.2957C257.712 19.7061 258.1 20.0264 258.554 20.216C259.009 20.4056 259.51 20.456 259.993 20.3609C260.476 20.2657 260.921 20.0293 261.27 19.6815C261.619 19.3338 261.856 18.8903 261.953 18.4072C262.05 17.9242 262.001 17.4233 261.813 16.968C261.625 16.5128 261.306 16.1236 260.896 15.8497C260.487 15.5759 260.005 15.4297 259.512 15.4297C258.854 15.4297 258.222 15.6908 257.755 16.1559C257.289 16.6209 257.026 17.252 257.023 17.9107Z" fill="#E0E0E0"/>
<path d="M248.216 17.9107C248.214 18.4033 248.359 18.8854 248.631 19.2957C248.904 19.7061 249.292 20.0264 249.747 20.216C250.201 20.4056 250.702 20.456 251.186 20.3609C251.669 20.2657 252.113 20.0293 252.462 19.6815C252.811 19.3338 253.049 18.8903 253.145 18.4072C253.242 17.9242 253.193 17.4233 253.005 16.968C252.817 16.5128 252.498 16.1236 252.088 15.8497C251.679 15.5759 251.197 15.4297 250.705 15.4297C250.046 15.4297 249.414 15.6908 248.948 16.1559C248.481 16.6209 248.218 17.252 248.216 17.9107Z" fill="#E0E0E0"/>
<path d="M347.41 96.0983H245.025C244.154 96.0962 243.319 95.7492 242.703 95.1333C242.087 94.5174 241.74 93.6826 241.738 92.8115V24.8262H350.697V92.7956C350.698 93.2283 350.614 93.6569 350.449 94.057C350.284 94.4572 350.043 94.821 349.737 95.1277C349.432 95.4344 349.07 95.6779 348.67 95.8445C348.271 96.011 347.843 96.0973 347.41 96.0983Z" fill="#FAFAFA"/>
<path d="M234.406 25.2655C234.407 24.8308 234.494 24.4006 234.662 23.9996C234.83 23.5987 235.076 23.235 235.385 22.9295C235.695 22.624 236.061 22.3827 236.464 22.2195C236.867 22.0563 237.298 21.9745 237.733 21.9787H340.078C340.949 21.9808 341.784 22.3277 342.4 22.9437C343.016 23.5596 343.363 24.3944 343.365 25.2655V35.8438H234.406V25.2655Z" fill="#FAFAFA"/>
<path d="M258.476 28.9109C258.476 29.4025 258.621 29.8831 258.894 30.2921C259.167 30.7011 259.555 31.0201 260.008 31.2089C260.462 31.3978 260.962 31.448 261.444 31.3532C261.927 31.2585 262.37 31.023 262.719 30.6765C263.068 30.33 263.306 29.888 263.404 29.4062C263.502 28.9245 263.455 28.4245 263.269 27.9694C263.083 27.5144 262.766 27.1245 262.359 26.8491C261.952 26.5737 261.472 26.4251 260.981 26.4219C260.652 26.4198 260.327 26.4826 260.023 26.6068C259.719 26.7309 259.443 26.9139 259.21 27.1453C258.977 27.3766 258.793 27.6517 258.667 27.9547C258.54 28.2578 258.476 28.5827 258.476 28.9109Z" fill="#F0F0F0"/>
<path d="M249.7 28.9109C249.7 29.4039 249.847 29.8858 250.121 30.2954C250.395 30.7051 250.785 31.0241 251.24 31.212C251.696 31.3999 252.197 31.4482 252.681 31.3509C253.164 31.2536 253.607 31.0149 253.955 30.6652C254.302 30.3155 254.538 29.8705 254.632 29.3867C254.727 28.9028 254.675 28.4019 254.484 27.9473C254.293 27.4928 253.972 27.1052 253.56 26.8336C253.149 26.5621 252.666 26.4188 252.173 26.4219C251.516 26.4261 250.887 26.6902 250.424 27.1566C249.96 27.6229 249.7 28.2536 249.7 28.9109Z" fill="#F0F0F0"/>
<path d="M243.366 31.3999C244.741 31.3999 245.855 30.2855 245.855 28.9109C245.855 27.5362 244.741 26.4219 243.366 26.4219C241.991 26.4219 240.877 27.5362 240.877 28.9109C240.877 30.2855 241.991 31.3999 243.366 31.3999Z" fill="#F0F0F0"/>
<path d="M340.078 107.1H237.733C236.862 107.098 236.027 106.751 235.411 106.135C234.795 105.519 234.448 104.684 234.446 103.813V35.8438H343.365V103.805C343.365 104.678 343.019 105.514 342.403 106.132C341.787 106.75 340.951 107.098 340.078 107.1Z" fill="#E0E0E0"/>
<path d="M63.127 64.6188C63.1332 63.8011 63.4602 63.0186 64.0376 62.4397C64.615 61.8608 65.3967 61.5318 66.2143 61.5234H220.526C221.35 61.5255 222.14 61.854 222.723 62.437C223.306 63.0201 223.635 63.8102 223.637 64.6347V74.6706H63.127V64.6188Z" fill="#E0E0E0"/>
<path d="M88.3362 70.6412C87.8297 70.6412 87.3346 70.491 86.9135 70.2096C86.4924 69.9282 86.1641 69.5283 85.9703 69.0603C85.7765 68.5924 85.7258 68.0775 85.8246 67.5808C85.9234 67.084 86.1673 66.6277 86.5254 66.2696C86.8836 65.9114 87.3399 65.6675 87.8366 65.5687C88.3334 65.4699 88.8483 65.5206 89.3162 65.7145C89.7841 65.9083 90.1841 66.2365 90.4655 66.6576C90.7468 67.0788 90.897 67.5739 90.897 68.0803C90.897 68.7595 90.6272 69.4109 90.147 69.8911C89.6667 70.3714 89.0154 70.6412 88.3362 70.6412ZM88.3362 65.9264C87.9099 65.9248 87.4926 66.0498 87.1374 66.2855C86.7821 66.5212 86.5048 66.8571 86.3405 67.2505C86.1763 67.644 86.1325 68.0773 86.2147 68.4957C86.2969 68.914 86.5014 69.2985 86.8023 69.6006C87.1032 69.9026 87.487 70.1086 87.9051 70.1923C88.3231 70.2761 88.7566 70.2339 89.1507 70.0711C89.5447 69.9083 89.8816 69.6322 90.1186 69.2778C90.3557 68.9235 90.4822 68.5067 90.4822 68.0803C90.4822 67.5105 90.2564 66.9638 89.8541 66.5601C89.4519 66.1564 88.9061 65.9285 88.3362 65.9264Z" fill="white"/>
<path d="M79.9837 70.6412C79.4772 70.6412 78.9821 70.491 78.561 70.2096C78.1398 69.9282 77.8116 69.5283 77.6178 69.0603C77.424 68.5924 77.3732 68.0775 77.4721 67.5808C77.5709 67.084 77.8148 66.6277 78.1729 66.2696C78.531 65.9114 78.9873 65.6675 79.4841 65.5687C79.9808 65.4699 80.4957 65.5206 80.9637 65.7145C81.4316 65.9083 81.8315 66.2365 82.1129 66.6576C82.3943 67.0788 82.5445 67.5739 82.5445 68.0803C82.5445 68.7595 82.2747 69.4109 81.7944 69.8911C81.3142 70.3714 80.6628 70.6412 79.9837 70.6412ZM79.9837 65.9264C79.5577 65.9264 79.1412 66.0527 78.787 66.2894C78.4328 66.5261 78.1567 66.8625 77.9937 67.2561C77.8306 67.6496 77.788 68.0827 77.8711 68.5006C77.9542 68.9184 78.1594 69.3022 78.4606 69.6034C78.7618 69.9047 79.1456 70.1098 79.5635 70.1929C79.9813 70.276 80.4144 70.2334 80.808 70.0703C81.2015 69.9073 81.5379 69.6312 81.7746 69.277C82.0113 68.9228 82.1376 68.5064 82.1376 68.0803C82.1376 67.5091 81.9107 66.9612 81.5068 66.5573C81.1028 66.1533 80.5549 65.9264 79.9837 65.9264Z" fill="white"/>
<path d="M71.6311 70.6412C71.1247 70.6412 70.6295 70.491 70.2084 70.2096C69.7873 69.9282 69.4591 69.5283 69.2652 69.0603C69.0714 68.5924 69.0207 68.0775 69.1195 67.5808C69.2183 67.084 69.4622 66.6277 69.8204 66.2696C70.1785 65.9114 70.6348 65.6675 71.1315 65.5687C71.6283 65.4699 72.1432 65.5206 72.6111 65.7145C73.079 65.9083 73.479 66.2365 73.7604 66.6576C74.0418 67.0788 74.192 67.5739 74.192 68.0803C74.192 68.7595 73.9222 69.4109 73.4419 69.8911C72.9617 70.3714 72.3103 70.6412 71.6311 70.6412ZM71.6311 65.9264C71.2051 65.9264 70.7887 66.0527 70.4345 66.2894C70.0802 66.5261 69.8042 66.8625 69.6411 67.2561C69.4781 67.6496 69.4354 68.0827 69.5186 68.5006C69.6017 68.9184 69.8068 69.3022 70.1081 69.6034C70.4093 69.9047 70.7931 70.1098 71.2109 70.1929C71.6287 70.276 72.0618 70.2334 72.4554 70.0703C72.849 69.9073 73.1854 69.6312 73.4221 69.277C73.6588 68.9228 73.7851 68.5064 73.7851 68.0803C73.7851 67.7975 73.7294 67.5174 73.6211 67.2561C73.5129 66.9947 73.3542 66.7573 73.1542 66.5573C72.9542 66.3572 72.7167 66.1986 72.4554 66.0903C72.1941 65.9821 71.914 65.9264 71.6311 65.9264Z" fill="white"/>
<path d="M220.525 158.052H66.214C65.3874 158.05 64.5952 157.721 64.0107 157.137C63.4261 156.552 63.0968 155.76 63.0947 154.933V74.6543H223.605V154.957C223.598 155.773 223.273 156.555 222.697 157.133C222.121 157.712 221.342 158.042 220.525 158.052Z" fill="#F0F0F0"/>
<path d="M56.1709 85.7833C56.173 84.9567 56.5023 84.1645 57.0868 83.58C57.6713 82.9955 58.4635 82.6662 59.2901 82.6641H213.57C214.395 82.6662 215.187 82.9957 215.77 83.5805C216.353 84.1652 216.681 84.9574 216.681 85.7833V95.8272H56.1709V85.7833Z" fill="#FAFAFA"/>
<path d="M81.3723 91.8384C80.8659 91.8384 80.3708 91.6882 79.9496 91.4069C79.5285 91.1255 79.2003 90.7255 79.0065 90.2576C78.8126 89.7897 78.7619 89.2748 78.8607 88.778C78.9595 88.2813 79.2034 87.825 79.5616 87.4668C79.9197 87.1087 80.376 86.8648 80.8728 86.766C81.3695 86.6672 81.8844 86.7179 82.3523 86.9117C82.8203 87.1055 83.2202 87.4338 83.5016 87.8549C83.783 88.276 83.9332 88.7711 83.9332 89.2776C83.9332 89.9568 83.6634 90.6081 83.1831 91.0884C82.7029 91.5686 82.0515 91.8384 81.3723 91.8384ZM81.3723 87.1237C80.9463 87.1237 80.5299 87.25 80.1757 87.4867C79.8215 87.7233 79.5454 88.0598 79.3823 88.4533C79.2193 88.8469 79.1767 89.28 79.2598 89.6978C79.3429 90.1157 79.548 90.4995 79.8493 90.8007C80.1505 91.1019 80.5343 91.3071 80.9521 91.3902C81.37 91.4733 81.803 91.4306 82.1966 91.2676C82.5902 91.1046 82.9266 90.8285 83.1633 90.4743C83.4 90.1201 83.5263 89.7036 83.5263 89.2776C83.5359 88.9888 83.4873 88.7009 83.3834 88.4313C83.2795 88.1616 83.1224 87.9156 82.9214 87.7079C82.7204 87.5002 82.4797 87.3351 82.2136 87.2224C81.9474 87.1097 81.6614 87.0517 81.3723 87.0519V87.1237Z" fill="#E0E0E0"/>
<path d="M73.0276 91.8384C72.5211 91.8384 72.026 91.6882 71.6049 91.4069C71.1838 91.1255 70.8556 90.7255 70.6617 90.2576C70.4679 89.7897 70.4172 89.2748 70.516 88.778C70.6148 88.2813 70.8587 87.825 71.2168 87.4668C71.575 87.1087 72.0313 86.8648 72.528 86.766C73.0248 86.6672 73.5397 86.7179 74.0076 86.9117C74.4755 87.1055 74.8755 87.4338 75.1569 87.8549C75.4382 88.276 75.5884 88.7711 75.5884 89.2776C75.5884 89.9568 75.3186 90.6081 74.8384 91.0884C74.3581 91.5686 73.7068 91.8384 73.0276 91.8384ZM73.0276 87.1237C72.6016 87.1237 72.1852 87.25 71.8309 87.4867C71.4767 87.7233 71.2006 88.0598 71.0376 88.4533C70.8746 88.8469 70.8319 89.28 70.915 89.6978C70.9982 90.1157 71.2033 90.4995 71.5045 90.8007C71.8058 91.1019 72.1896 91.3071 72.6074 91.3902C73.0252 91.4733 73.4583 91.4306 73.8519 91.2676C74.2455 91.1046 74.5819 90.8285 74.8186 90.4743C75.0552 90.1201 75.1816 89.7036 75.1816 89.2776C75.1912 88.9888 75.1426 88.7009 75.0387 88.4313C74.9348 88.1616 74.7776 87.9156 74.5767 87.7079C74.3757 87.5002 74.135 87.3351 73.8688 87.2224C73.6027 87.1097 73.3166 87.0517 73.0276 87.0519V87.1237Z" fill="#E0E0E0"/>
<path d="M64.6751 91.8384C64.1686 91.8384 63.6735 91.6882 63.2524 91.4069C62.8312 91.1255 62.503 90.7255 62.3092 90.2576C62.1154 89.7897 62.0647 89.2748 62.1635 88.778C62.2623 88.2813 62.5062 87.825 62.8643 87.4668C63.2224 87.1087 63.6787 86.8648 64.1755 86.766C64.6722 86.6672 65.1871 86.7179 65.6551 86.9117C66.123 87.1055 66.5229 87.4338 66.8043 87.8549C67.0857 88.276 67.2359 88.7711 67.2359 89.2776C67.2359 89.9568 66.9661 90.6081 66.4859 91.0884C66.0056 91.5686 65.3543 91.8384 64.6751 91.8384ZM64.6751 87.1237C64.2491 87.1237 63.8326 87.25 63.4784 87.4867C63.1242 87.7233 62.8481 88.0598 62.6851 88.4533C62.5221 88.8469 62.4794 89.28 62.5625 89.6978C62.6456 90.1157 62.8508 90.4995 63.152 90.8007C63.4532 91.1019 63.837 91.3071 64.2549 91.3902C64.6727 91.4733 65.1058 91.4306 65.4994 91.2676C65.893 91.1046 66.2293 90.8285 66.466 90.4743C66.7027 90.1201 66.829 89.7036 66.829 89.2776C66.8387 88.9888 66.7901 88.7009 66.6862 88.4313C66.5822 88.1616 66.4251 87.9156 66.2241 87.7079C66.0231 87.5002 65.7824 87.3351 65.5163 87.2224C65.2502 87.1097 64.9641 87.0517 64.6751 87.0519V87.1237Z" fill="#E0E0E0"/>
<path d="M213.57 195.07H59.2901C58.4635 195.068 57.6713 194.738 57.0868 194.154C56.5023 193.569 56.173 192.777 56.1709 191.951V95.8281H216.681V191.951C216.681 192.776 216.353 193.569 215.77 194.153C215.187 194.738 214.395 195.068 213.57 195.07Z" fill="#F0F0F0"/>
<path d="M108.863 10.3393H52.6522C51.7917 10.3372 50.967 9.99447 50.3586 9.38601C49.7501 8.77755 49.4074 7.95292 49.4053 7.09243C49.4095 6.23334 49.7532 5.41074 50.3614 4.80401C50.9696 4.19728 51.7931 3.85561 52.6522 3.85352H108.879C109.736 3.85771 110.558 4.2003 111.164 4.80681C111.771 5.41332 112.113 6.23471 112.117 7.09243C112.115 7.9543 111.771 8.78014 111.161 9.38882C110.551 9.9975 109.724 10.3393 108.863 10.3393Z" fill="#E0E0E0"/>
<path d="M132.213 23.9338L52.8121 23.6147C51.96 23.598 51.1484 23.2477 50.5517 22.6391C49.9551 22.0305 49.6209 21.2122 49.6211 20.3599C49.6253 19.5001 49.9704 18.6771 50.5805 18.0714C51.1907 17.4658 52.0162 17.1268 52.876 17.1289L132.269 17.448C133.128 17.4543 133.95 17.8 134.555 18.4098C135.161 19.0195 135.5 19.8438 135.5 20.7029C135.498 21.1313 135.411 21.5551 135.245 21.9498C135.078 22.3445 134.835 22.7023 134.53 23.0027C134.224 23.303 133.862 23.5399 133.465 23.6997C133.067 23.8595 132.642 23.9391 132.213 23.9338Z" fill="#F0F0F0"/>
<path d="M89.9476 38.9546H52.6522C51.7917 38.9525 50.967 38.6097 50.3586 38.0012C49.7501 37.3928 49.4074 36.5681 49.4053 35.7077C49.4095 34.8486 49.7532 34.026 50.3614 33.4192C50.9696 32.8125 51.7931 32.4708 52.6522 32.4688H89.9635C90.8227 32.4708 91.6461 32.8125 92.2543 33.4192C92.8626 34.026 93.2062 34.8486 93.2104 35.7077C93.2094 36.1351 93.1242 36.5582 92.9596 36.9526C92.7951 37.3471 92.5545 37.7054 92.2515 38.0069C91.9485 38.3084 91.5891 38.5473 91.1938 38.7099C90.7985 38.8725 90.375 38.9556 89.9476 38.9546Z" fill="#E6E6E6"/>
<path d="M347.697 130.753H330.377C329.723 130.751 329.097 130.49 328.634 130.029C328.171 129.567 327.908 128.941 327.904 128.288C327.908 127.633 328.17 127.006 328.633 126.543C329.096 126.081 329.723 125.819 330.377 125.814H347.697C348.351 125.819 348.976 126.081 349.438 126.544C349.9 127.007 350.16 127.634 350.162 128.288C350.16 128.941 349.899 129.566 349.438 130.028C348.976 130.49 348.35 130.751 347.697 130.753Z" fill="#E0E0E0"/>
<path d="M355.922 136.361H330.369C329.008 136.361 327.904 137.465 327.904 138.826V138.834C327.904 140.196 329.008 141.299 330.369 141.299H355.922C357.283 141.299 358.387 140.196 358.387 138.834V138.826C358.387 137.465 357.283 136.361 355.922 136.361Z" fill="#F0F0F0"/>
<path d="M340.98 152.54H330.378C330.052 152.542 329.729 152.48 329.427 152.357C329.125 152.234 328.851 152.053 328.619 151.824C328.387 151.595 328.202 151.323 328.076 151.023C327.949 150.723 327.883 150.4 327.881 150.075C327.885 149.42 328.147 148.793 328.61 148.331C329.073 147.868 329.699 147.606 330.354 147.602H340.956C341.611 147.604 342.239 147.865 342.703 148.328C343.166 148.792 343.427 149.419 343.429 150.075C343.427 150.725 343.169 151.348 342.711 151.81C342.252 152.271 341.631 152.533 340.98 152.54Z" fill="#E6E6E6"/>
<path d="M348.271 163.079H330.377C329.723 163.077 329.097 162.817 328.634 162.355C328.171 161.893 327.908 161.268 327.904 160.614C327.908 159.959 328.17 159.332 328.633 158.87C329.096 158.407 329.723 158.145 330.377 158.141H348.271C348.925 158.145 349.551 158.407 350.012 158.87C350.474 159.333 350.734 159.96 350.736 160.614C350.734 161.267 350.474 161.893 350.012 162.354C349.55 162.816 348.924 163.077 348.271 163.079Z" fill="#F0F0F0"/>
<path d="M345.431 174.327H330.377C329.723 174.325 329.097 174.065 328.634 173.603C328.171 173.141 327.908 172.516 327.904 171.862C327.908 171.207 328.17 170.581 328.633 170.118C329.096 169.655 329.723 169.393 330.377 169.389H345.431C346.086 169.393 346.712 169.655 347.175 170.118C347.638 170.581 347.9 171.207 347.904 171.862C347.9 172.516 347.638 173.141 347.175 173.603C346.712 174.065 346.085 174.325 345.431 174.327Z" fill="#E6E6E6"/>
<path d="M288.351 143.764H236.871C236.217 143.762 235.59 143.501 235.128 143.037C234.666 142.574 234.406 141.946 234.406 141.291C234.408 140.638 234.669 140.012 235.131 139.551C235.592 139.089 236.218 138.828 236.871 138.826H288.351C289.004 138.828 289.63 139.089 290.092 139.551C290.554 140.012 290.814 140.638 290.816 141.291C290.816 141.946 290.557 142.574 290.095 143.037C289.632 143.501 289.006 143.762 288.351 143.764Z" fill="#E0E0E0"/>
<path d="M309.189 154.303H236.871C236.218 154.301 235.592 154.041 235.131 153.579C234.669 153.117 234.408 152.491 234.406 151.838C234.406 151.184 234.666 150.556 235.128 150.092C235.59 149.629 236.217 149.367 236.871 149.365H309.189C309.844 149.367 310.472 149.629 310.935 150.092C311.398 150.555 311.66 151.183 311.662 151.838C311.657 152.492 311.395 153.118 310.932 153.58C310.469 154.041 309.842 154.301 309.189 154.303Z" fill="#F0F0F0"/>
<path d="M271.335 165.551H236.871C236.217 165.549 235.59 165.288 235.128 164.824C234.666 164.361 234.406 163.733 234.406 163.078C234.408 162.425 234.669 161.799 235.131 161.338C235.592 160.876 236.218 160.615 236.871 160.613H271.335C271.989 160.615 272.615 160.875 273.078 161.337C273.541 161.799 273.804 162.425 273.808 163.078C273.806 163.734 273.544 164.361 273.081 164.825C272.618 165.288 271.99 165.549 271.335 165.551Z" fill="#E6E6E6"/>
<path d="M289.803 176.09H236.871C236.217 176.088 235.59 175.827 235.128 175.363C234.666 174.9 234.406 174.272 234.406 173.617C234.408 172.964 234.669 172.338 235.131 171.877C235.592 171.415 236.218 171.154 236.871 171.152H289.803C290.457 171.152 291.085 171.412 291.549 171.874C292.012 172.336 292.274 172.963 292.276 173.617C292.276 173.942 292.212 174.264 292.088 174.564C291.963 174.864 291.781 175.136 291.552 175.366C291.322 175.596 291.049 175.778 290.749 175.902C290.449 176.027 290.128 176.09 289.803 176.09Z" fill="#F0F0F0"/>
<path d="M282.511 187.339H236.871C236.217 187.336 235.59 187.075 235.128 186.611C234.666 186.148 234.406 185.52 234.406 184.865C234.408 184.212 234.669 183.587 235.131 183.125C235.592 182.663 236.218 182.402 236.871 182.4H282.511C283.165 182.402 283.79 182.663 284.252 183.125C284.714 183.587 284.974 184.212 284.976 184.865C284.976 185.52 284.717 186.148 284.255 186.611C283.793 187.075 283.166 187.336 282.511 187.339Z" fill="#E6E6E6"/>
<path d="M199.441 303.692C284.867 303.692 354.119 299.649 354.119 294.662C354.119 289.674 284.867 285.631 199.441 285.631C114.015 285.631 44.7627 289.674 44.7627 294.662C44.7627 299.649 114.015 303.692 199.441 303.692Z" fill="#F5F5F5"/>
<path opacity="0.7" d="M279.513 240.047H181.196C177.931 240.067 174.697 239.415 171.694 238.133C168.691 236.85 165.984 234.965 163.74 232.593C161.496 230.221 159.763 227.413 158.649 224.344C157.535 221.275 157.063 218.009 157.264 214.75L165.672 54.2724C166.366 40.3594 178.34 28.9753 192.261 28.9753H290.578C293.846 28.9506 297.085 29.5983 300.092 30.8782C303.1 32.1581 305.812 34.0428 308.06 36.4153C310.309 38.7878 312.045 41.5973 313.161 44.6693C314.278 47.7412 314.751 51.01 314.55 54.2724L306.134 214.75C305.408 228.663 293.426 240.047 279.513 240.047Z" fill="#407BFF"/>
<path d="M221.451 19.7285H215.332V20.5263H221.451V19.7285Z" fill="#407BFF"/>
<path d="M210.107 19.7285H188.831V20.5263H210.107V19.7285Z" fill="#407BFF"/>
<path d="M155.044 74.4495L154.724 80.4961L155.52 80.5383L155.84 74.4917L155.044 74.4495Z" fill="#407BFF"/>
<path opacity="0.6" d="M273.857 234.399H175.508C172.244 234.418 169.01 233.767 166.008 232.485C163.006 231.203 160.299 229.318 158.055 226.947C155.811 224.576 154.078 221.769 152.964 218.701C151.849 215.633 151.377 212.368 151.576 209.11L159.992 48.6239C160.718 34.7109 172.7 23.3269 186.613 23.3269H284.922C288.19 23.3021 291.429 23.9498 294.436 25.2297C297.444 26.5096 300.156 28.3944 302.404 30.7669C304.653 33.1394 306.389 35.9489 307.505 39.0208C308.622 42.0928 309.095 45.3615 308.894 48.6239L300.486 209.11C299.752 223.015 287.77 234.399 273.857 234.399Z" fill="#407BFF"/>
<mask id="mask0_28_139" style="mask-type:luminance" maskUnits="userSpaceOnUse" x="151" y="23" width="158" height="212">
<path d="M273.856 234.399H175.507C172.243 234.418 169.01 233.767 166.007 232.485C163.005 231.203 160.298 229.318 158.054 226.947C155.81 224.576 154.077 221.769 152.963 218.701C151.848 215.633 151.376 212.368 151.575 209.11L159.991 48.6239C160.717 34.7109 172.699 23.3269 186.612 23.3269H284.921C288.189 23.3021 291.428 23.9498 294.435 25.2297C297.443 26.5096 300.155 28.3944 302.403 30.7669C304.652 33.1394 306.388 35.9489 307.504 39.0208C308.621 42.0928 309.094 45.3615 308.893 48.6239L300.485 209.11C299.751 223.015 287.769 234.399 273.856 234.399Z" fill="white"/>
</mask>
<g mask="url(#mask0_28_139)">
<path d="M193.928 211.686C170.553 211.686 149.045 202.584 133.361 186.062C117.677 169.54 109.668 147.482 110.896 124.06C111.752 108.516 116.572 93.4491 124.897 80.2945C133.049 67.4003 144.179 56.6534 157.35 48.9583C157.399 48.9384 157.453 48.9384 157.502 48.9583C157.555 48.9734 157.6 49.0075 157.629 49.0541L165.679 64.411C165.966 64.2514 166.253 64.0919 166.548 63.9403L166.86 63.7648C166.909 63.7489 166.962 63.7489 167.011 63.7648C167.037 63.7726 167.062 63.7858 167.082 63.8037C167.103 63.8216 167.119 63.8437 167.131 63.8685L169.333 68.0568C169.356 68.1025 169.36 68.1553 169.345 68.2044C169.33 68.2534 169.297 68.2948 169.253 68.32C148.774 79.7679 135.3 101.14 134.103 124.108C133.194 141.323 139.057 157.51 150.609 169.676C156.341 175.7 163.25 180.481 170.909 183.721C178.567 186.962 186.809 188.592 195.124 188.511C195.151 188.51 195.178 188.516 195.203 188.527C195.228 188.538 195.25 188.554 195.268 188.575C195.287 188.593 195.303 188.615 195.312 188.64C195.322 188.665 195.326 188.692 195.324 188.718L194.127 211.534C194.118 211.579 194.092 211.62 194.056 211.647C194.019 211.675 193.974 211.689 193.928 211.686ZM157.366 49.413C130.537 65.129 112.883 93.7208 111.287 124.076C110.067 147.394 118.012 169.309 133.625 185.783C149.237 202.256 170.521 211.239 193.72 211.311L194.893 188.902C186.56 188.953 178.304 187.298 170.634 184.038C162.965 180.778 156.044 175.983 150.298 169.947C138.675 157.693 132.747 141.403 133.681 124.084C134.885 101.044 148.359 79.5924 168.862 68.0568L166.852 64.2195L166.708 64.2993C166.365 64.4828 166.014 64.6663 165.679 64.8657C165.628 64.8861 165.57 64.8861 165.519 64.8657C165.469 64.8503 165.426 64.816 165.4 64.77L157.366 49.413Z" fill="#407BFF"/>
<path d="M199.608 220.007C199.551 220.007 199.497 219.984 199.457 219.943C199.439 219.922 199.426 219.898 199.418 219.872C199.41 219.846 199.407 219.819 199.409 219.792L200.685 195.388C200.689 195.338 200.712 195.291 200.749 195.257C200.786 195.223 200.835 195.204 200.885 195.205C238.898 195.205 271.447 164.275 273.441 126.254C273.445 126.204 273.468 126.157 273.505 126.123C273.542 126.089 273.591 126.07 273.641 126.07H279.449C279.474 126.069 279.5 126.074 279.524 126.083C279.548 126.092 279.571 126.106 279.589 126.124C279.608 126.142 279.623 126.163 279.633 126.187C279.643 126.211 279.648 126.236 279.648 126.262C279.696 128.24 279.648 130.251 279.576 132.205H297.518C297.545 132.205 297.572 132.21 297.597 132.221C297.622 132.232 297.644 132.248 297.661 132.269C297.698 132.314 297.718 132.371 297.717 132.429C294.889 155.396 284.137 176.657 267.315 192.548C248.942 209.995 224.267 220.007 199.608 220.007ZM201.076 195.604L199.816 219.608C224.307 219.552 248.799 209.588 267.035 192.253C283.739 176.484 294.436 155.396 297.295 132.604H279.369C279.339 132.604 279.31 132.597 279.283 132.583C279.257 132.569 279.234 132.549 279.217 132.524C279.197 132.507 279.182 132.484 279.172 132.459C279.162 132.434 279.159 132.407 279.161 132.381C279.265 130.418 279.289 128.392 279.249 126.453H273.824C271.734 164.539 239.154 195.5 201.076 195.604Z" fill="#407BFF"/>
<path d="M279.449 126.47C279.397 126.468 279.347 126.446 279.31 126.41C279.273 126.373 279.251 126.323 279.249 126.271C278.236 85.9597 245.743 54.3843 205.241 54.3843C191.904 54.4158 178.782 57.7544 167.052 64.101C167.029 64.1148 167.004 64.1237 166.977 64.1271C166.951 64.1305 166.924 64.1284 166.899 64.1209C166.873 64.1134 166.85 64.1007 166.829 64.0835C166.809 64.0663 166.792 64.0451 166.781 64.0212C166.757 63.9743 166.752 63.9202 166.767 63.8699C166.782 63.8196 166.815 63.7767 166.86 63.75C178.65 57.3719 191.837 54.0169 205.241 53.9854C224.675 53.7611 243.409 61.2364 257.351 74.7787C271.292 88.321 279.308 106.83 279.648 126.263C279.649 126.289 279.645 126.315 279.636 126.34C279.627 126.364 279.613 126.387 279.595 126.406C279.578 126.425 279.556 126.441 279.532 126.452C279.509 126.463 279.483 126.469 279.457 126.47H279.449Z" fill="#407BFF"/>
<path d="M306.979 132.604H297.517C297.464 132.604 297.413 132.583 297.376 132.546C297.339 132.509 297.318 132.458 297.318 132.405C297.318 132.352 297.339 132.301 297.376 132.264C297.413 132.227 297.464 132.206 297.517 132.206H306.787C307.765 113.968 303.834 95.8024 295.403 79.6011C283.046 56.091 261.961 38.9152 236.026 31.2247C208.439 23.0397 179.073 26.4382 153.313 40.7979L157.629 49.0149C157.652 49.0627 157.656 49.1175 157.639 49.1679C157.623 49.2184 157.588 49.2607 157.542 49.2861C157.518 49.2984 157.492 49.306 157.466 49.3082C157.439 49.3105 157.413 49.3074 157.388 49.2993C157.362 49.2911 157.339 49.2779 157.319 49.2606C157.299 49.2433 157.282 49.2221 157.27 49.1983L152.875 40.8139C152.862 40.7914 152.854 40.7667 152.852 40.7412C152.849 40.7157 152.851 40.6899 152.859 40.6653C152.866 40.6408 152.879 40.618 152.895 40.5982C152.911 40.5785 152.932 40.5623 152.954 40.5506C165.806 33.3131 179.991 28.7565 194.654 27.1561C208.589 25.6028 222.694 26.856 236.137 30.8418C262.176 38.5642 283.349 55.8118 295.754 79.4176C304.249 95.7372 308.195 114.043 307.178 132.413C307.176 132.465 307.154 132.513 307.117 132.549C307.08 132.585 307.03 132.605 306.979 132.604Z" fill="#407BFF"/>
<path d="M165.6 64.867H165.544C165.493 64.8515 165.45 64.8173 165.424 64.7713L157.271 49.2308C157.247 49.1832 157.242 49.1279 157.259 49.077C157.275 49.0262 157.311 48.9839 157.359 48.9596C157.406 48.9353 157.462 48.9308 157.513 48.9473C157.564 48.9637 157.606 48.9997 157.63 49.0473L165.68 64.4043C165.967 64.2447 166.254 64.0852 166.549 63.9336L166.86 63.7581C166.884 63.7458 166.909 63.7382 166.936 63.736C166.962 63.7337 166.989 63.7368 167.014 63.7449C167.04 63.7531 167.063 63.7662 167.083 63.7836C167.103 63.8009 167.12 63.8221 167.131 63.8459C167.144 63.8683 167.152 63.893 167.154 63.9185C167.157 63.944 167.155 63.9698 167.147 63.9944C167.14 64.0189 167.128 64.0417 167.111 64.0615C167.095 64.0812 167.074 64.0974 167.052 64.1091L166.733 64.2846C166.39 64.4681 166.039 64.6516 165.703 64.851C165.671 64.8645 165.635 64.87 165.6 64.867Z" fill="#407BFF"/>
<g opacity="0.3">
<path d="M193.929 211.686C170.554 211.686 149.046 202.584 133.362 186.062C117.678 169.54 109.669 147.482 110.897 124.06C111.753 108.516 116.573 93.4491 124.898 80.2945C133.05 67.4003 144.18 56.6534 157.351 48.9583C157.4 48.9384 157.454 48.9384 157.503 48.9583C157.556 48.9734 157.601 49.0075 157.63 49.0541L165.68 64.411C165.967 64.2514 166.254 64.0919 166.549 63.9403L166.86 63.7648C166.91 63.7489 166.963 63.7489 167.012 63.7648C167.038 63.7726 167.062 63.7858 167.083 63.8037C167.104 63.8216 167.12 63.8437 167.132 63.8685L169.334 68.0568C169.357 68.1025 169.361 68.1553 169.346 68.2044C169.331 68.2534 169.298 68.2948 169.254 68.32C148.775 79.7679 135.301 101.14 134.104 124.108C133.195 141.323 139.058 157.51 150.61 169.676C156.342 175.7 163.251 180.481 170.91 183.721C178.568 186.962 186.81 188.592 195.125 188.511C195.152 188.51 195.179 188.516 195.204 188.527C195.229 188.538 195.251 188.554 195.269 188.575C195.288 188.593 195.304 188.615 195.313 188.64C195.323 188.665 195.327 188.692 195.325 188.718L194.128 211.534C194.119 211.579 194.093 211.62 194.057 211.647C194.02 211.675 193.974 211.689 193.929 211.686ZM157.367 49.413C130.538 65.129 112.884 93.7208 111.288 124.076C110.068 147.394 118.013 169.309 133.626 185.783C149.238 202.256 170.522 211.239 193.721 211.311L194.894 188.902C186.561 188.953 178.305 187.298 170.635 184.038C162.966 180.778 156.045 175.983 150.299 169.947C138.676 157.693 132.748 141.403 133.682 124.084C134.886 101.044 148.36 79.5924 168.863 68.0568L166.853 64.2195L166.709 64.2993C166.366 64.4828 166.015 64.6663 165.68 64.8657C165.629 64.8861 165.571 64.8861 165.52 64.8657C165.47 64.8503 165.427 64.816 165.401 64.77L157.367 49.413Z" fill="white"/>
<path d="M199.608 220.007C199.551 220.007 199.497 219.984 199.457 219.943C199.439 219.922 199.426 219.898 199.418 219.872C199.41 219.846 199.407 219.819 199.409 219.792L200.685 195.388C200.689 195.338 200.712 195.291 200.749 195.257C200.786 195.223 200.835 195.204 200.885 195.205C238.898 195.205 271.447 164.275 273.441 126.254C273.445 126.204 273.468 126.157 273.505 126.123C273.542 126.089 273.591 126.07 273.641 126.07H279.449C279.474 126.069 279.5 126.074 279.524 126.083C279.548 126.092 279.571 126.106 279.589 126.124C279.608 126.142 279.623 126.163 279.633 126.187C279.643 126.211 279.648 126.236 279.648 126.262C279.696 128.24 279.648 130.251 279.576 132.205H297.518C297.545 132.205 297.572 132.21 297.597 132.221C297.622 132.232 297.644 132.248 297.661 132.269C297.698 132.314 297.718 132.371 297.717 132.429C294.889 155.396 284.137 176.657 267.315 192.548C248.942 209.995 224.267 220.007 199.608 220.007ZM201.076 195.604L199.816 219.608C224.307 219.552 248.799 209.588 267.035 192.253C283.739 176.484 294.436 155.396 297.295 132.604H279.369C279.339 132.604 279.31 132.597 279.283 132.583C279.257 132.569 279.234 132.549 279.217 132.524C279.197 132.507 279.182 132.484 279.172 132.459C279.162 132.434 279.159 132.407 279.161 132.381C279.265 130.418 279.289 128.392 279.249 126.453H273.824C271.734 164.539 239.154 195.5 201.076 195.604Z" fill="white"/>
<path d="M279.449 126.47C279.397 126.468 279.347 126.446 279.31 126.41C279.273 126.373 279.251 126.323 279.249 126.271C278.236 85.9597 245.743 54.3843 205.241 54.3843C191.904 54.4158 178.782 57.7544 167.052 64.101C167.029 64.1148 167.004 64.1237 166.977 64.1271C166.951 64.1305 166.924 64.1284 166.899 64.1209C166.873 64.1134 166.85 64.1007 166.829 64.0835C166.809 64.0663 166.792 64.0451 166.781 64.0212C166.757 63.9743 166.752 63.9202 166.767 63.8699C166.782 63.8196 166.815 63.7767 166.86 63.75C178.65 57.3719 191.837 54.0169 205.241 53.9854C224.675 53.7611 243.409 61.2364 257.351 74.7787C271.292 88.321 279.308 106.83 279.648 126.263C279.649 126.289 279.645 126.315 279.636 126.34C279.627 126.364 279.613 126.387 279.595 126.406C279.578 126.425 279.556 126.441 279.532 126.452C279.509 126.463 279.483 126.469 279.457 126.47H279.449Z" fill="white"/>
<path d="M306.98 132.604H297.518C297.465 132.604 297.414 132.583 297.377 132.546C297.34 132.509 297.319 132.458 297.319 132.405C297.319 132.352 297.34 132.301 297.377 132.264C297.414 132.227 297.465 132.206 297.518 132.206H306.788C307.766 113.968 303.835 95.8024 295.404 79.6011C283.047 56.091 261.962 38.9152 236.026 31.2247C208.44 23.0397 179.074 26.4382 153.314 40.7979L157.63 49.0149C157.653 49.0627 157.657 49.1175 157.64 49.1679C157.624 49.2184 157.589 49.2607 157.543 49.2861C157.519 49.2984 157.493 49.306 157.467 49.3082C157.44 49.3105 157.414 49.3074 157.389 49.2993C157.363 49.2911 157.34 49.2779 157.32 49.2606C157.3 49.2433 157.283 49.2221 157.271 49.1983L152.876 40.8139C152.863 40.7914 152.855 40.7667 152.853 40.7412C152.85 40.7157 152.852 40.6899 152.86 40.6653C152.867 40.6408 152.88 40.618 152.896 40.5982C152.912 40.5785 152.933 40.5623 152.955 40.5506C165.807 33.3131 179.992 28.7565 194.655 27.1561C208.59 25.6028 222.695 26.856 236.138 30.8418C262.177 38.5642 283.35 55.8118 295.755 79.4176C304.25 95.7372 308.196 114.043 307.179 132.413C307.177 132.465 307.155 132.513 307.118 132.549C307.081 132.585 307.031 132.605 306.98 132.604Z" fill="white"/>
<path d="M165.6 64.867H165.544C165.493 64.8515 165.45 64.8173 165.424 64.7713L157.271 49.2308C157.247 49.1832 157.242 49.1279 157.259 49.077C157.275 49.0262 157.311 48.9839 157.359 48.9596C157.406 48.9353 157.462 48.9308 157.513 48.9473C157.564 48.9637 157.606 48.9997 157.63 49.0473L165.68 64.4043C165.967 64.2447 166.254 64.0852 166.549 63.9336L166.86 63.7581C166.884 63.7458 166.909 63.7382 166.936 63.736C166.962 63.7337 166.989 63.7368 167.014 63.7449C167.04 63.7531 167.063 63.7662 167.083 63.7836C167.103 63.8009 167.12 63.8221 167.131 63.8459C167.144 63.8683 167.152 63.893 167.154 63.9185C167.157 63.944 167.155 63.9698 167.147 63.9944C167.14 64.0189 167.128 64.0417 167.111 64.0615C167.095 64.0812 167.074 64.0974 167.052 64.1091L166.733 64.2846C166.39 64.4681 166.039 64.6516 165.703 64.851C165.671 64.8645 165.635 64.87 165.6 64.867Z" fill="white"/>
</g>
</g>
<path d="M200.103 178.546L199.306 193.201C168.281 193.201 144.436 168.04 146.063 137.023C147.156 116.233 159.41 98.0682 176.713 88.3594L183.382 101.052C176.885 104.655 171.402 109.841 167.441 116.127C163.481 122.414 161.171 129.598 160.726 137.015C159.553 159.951 177.176 178.546 200.103 178.546Z" fill="#407BFF"/>
<path opacity="0.6" d="M200.103 178.546L199.306 193.201C168.281 193.201 144.436 168.04 146.063 137.023C147.156 116.233 159.41 98.0682 176.713 88.3594L183.382 101.052C176.885 104.655 171.402 109.841 167.441 116.127C163.481 122.414 161.171 129.598 160.726 137.015C159.553 159.951 177.176 178.546 200.103 178.546Z" fill="black"/>
<path d="M266.246 138.436C265.242 154.592 258.161 169.77 246.425 180.921C234.69 192.072 219.17 198.369 202.983 198.547L203.781 182.863C228.312 182.863 249.254 162.967 250.538 138.436H266.246Z" fill="#407BFF"/>
<path opacity="0.3" d="M266.246 138.436C265.242 154.592 258.161 169.77 246.425 180.921C234.69 192.072 219.17 198.369 202.983 198.547L203.781 182.863C228.312 182.863 249.254 162.967 250.538 138.436H266.246Z" fill="black"/>
<path d="M271.982 142.385H254.24C255.692 114.598 234.359 92.1255 206.605 92.1255C197.662 92.1224 188.872 94.4396 181.093 98.8506L173.027 83.4777C206.318 64.826 247.65 76.0745 264.626 108.384C270.086 118.852 272.627 130.596 271.982 142.385Z" fill="#FAFAFA"/>
<path d="M270.043 186.645H253.704L251.941 220.294H268.28L270.043 186.645Z" fill="#FAFAFA"/>
<path d="M293.361 175.523H277.023L274.678 220.294H291.016L293.361 175.523Z" fill="#407BFF"/>
<path opacity="0.6" d="M293.361 175.523H277.023L274.678 220.294H291.016L293.361 175.523Z" fill="black"/>
<path d="M315.507 186.645H299.169L297.406 220.294H313.744L315.507 186.645Z" fill="#407BFF"/>
<path opacity="0.3" d="M315.507 186.645H299.169L297.406 220.294H313.744L315.507 186.645Z" fill="black"/>
<path d="M313.593 223.158H251.79L251.83 222.393H313.633L313.593 223.158Z" fill="#263238"/>
<path opacity="0.8" d="M321.945 80.7901H250.705L252.811 40.543H324.059L321.945 80.7901Z" fill="#FAFAFA"/>
<path d="M251.989 56.2264L250.705 80.7895H321.945L323.541 50.291C311.718 50.291 304.706 63.7493 290.083 63.7493C275.46 63.7493 271.447 56.2264 251.989 56.2264Z" fill="#407BFF"/>
<path opacity="0.1" d="M251.989 56.2264L250.705 80.7895H321.945L323.541 50.291C311.718 50.291 304.706 63.7493 290.083 63.7493C275.46 63.7493 271.447 56.2264 251.989 56.2264Z" fill="black"/>
<path d="M251.376 67.9688C267.387 67.9688 273.138 59.1934 282.129 59.1934C291.12 59.1934 295.053 68.4235 306.254 68.4235C317.933 68.4235 323.007 61.1638 323.007 61.1638L321.978 80.8048H250.737L251.376 67.9688Z" fill="#407BFF"/>
<path opacity="0.5" d="M251.376 67.9688C267.387 67.9688 273.138 59.1934 282.129 59.1934C291.12 59.1934 295.053 68.4235 306.254 68.4235C317.933 68.4235 323.007 61.1638 323.007 61.1638L321.978 80.8048H250.737L251.376 67.9688Z" fill="black"/>
<path d="M110.482 98.8594C109.429 100.271 108.257 101.843 107.196 103.383C106.135 104.922 105.066 106.494 104.06 108.074C102.05 111.148 100.289 114.378 98.7952 117.734L98.5319 118.341L98.4043 118.644C98.3471 118.769 98.3172 118.905 98.3165 119.043C98.2961 119.693 98.3686 120.343 98.5319 120.973C98.9577 122.653 99.5372 124.29 100.263 125.864C101.843 129.31 103.595 132.676 105.512 135.947L102.058 138.676C99.1434 135.767 96.5443 132.558 94.3038 129.103C93.0982 127.243 92.0978 125.258 91.3201 123.183C90.8592 121.939 90.5719 120.637 90.4665 119.314C90.4074 118.47 90.4665 117.621 90.642 116.793C90.6899 116.562 90.7617 116.314 90.8335 116.083L90.9611 115.692L91.2164 114.894C91.5435 113.849 91.9424 112.868 92.3253 111.871C92.7082 110.874 93.1231 109.916 93.6257 108.983C94.5032 107.076 95.5164 105.265 96.5455 103.478C97.5746 101.691 98.6915 99.9683 99.8562 98.285C100.439 97.4394 101.037 96.6097 101.643 95.78C102.249 94.9504 102.856 94.1845 103.574 93.291L110.482 98.8594Z" fill="#E58A7B"/>
<path d="M104.259 134.695L108.543 135.429L104.738 141.875C104.738 141.875 101.754 140.439 101.212 137.655L104.259 134.695Z" fill="#E58A7B"/>
<path d="M113.171 137.733L109.78 142.919L104.738 141.874L108.544 135.428L113.171 137.733Z" fill="#E58A7B"/>
<path d="M132.572 67.586C132.572 68.0567 132.82 68.4396 133.131 68.4396C133.442 68.4396 133.689 68.0567 133.689 67.586C133.689 67.1154 133.442 66.7324 133.131 66.7324C132.82 66.7324 132.572 67.1074 132.572 67.586Z" fill="#263238"/>
<path d="M132.779 68.4395C133.344 69.8843 134.104 71.2451 135.037 72.4841C134.714 72.715 134.345 72.8724 133.955 72.9455C133.565 73.0185 133.164 73.0054 132.779 72.9069V68.4395Z" fill="#DF5753"/>
<path d="M130.896 64.9695C130.852 64.9707 130.808 64.9603 130.769 64.9393C130.73 64.9183 130.697 64.8875 130.673 64.8498C130.651 64.821 130.634 64.7879 130.625 64.7525C130.616 64.7172 130.615 64.6803 130.621 64.6443C130.627 64.6083 130.64 64.5739 130.66 64.5434C130.68 64.5128 130.706 64.4868 130.737 64.4669C131.087 64.1985 131.497 64.019 131.932 63.944C132.367 63.869 132.814 63.9006 133.234 64.0361C133.301 64.0644 133.354 64.1177 133.383 64.1848C133.411 64.2518 133.412 64.3273 133.386 64.3951C133.374 64.4294 133.356 64.461 133.331 64.4879C133.307 64.5147 133.278 64.5363 133.245 64.5513C133.212 64.5663 133.176 64.5743 133.14 64.5749C133.104 64.5754 133.068 64.5686 133.034 64.5546C132.7 64.4524 132.346 64.4317 132.002 64.4941C131.658 64.5566 131.333 64.7004 131.056 64.9136C131.011 64.9504 130.955 64.9702 130.896 64.9695Z" fill="#263238"/>
<path d="M117.311 73.0352C118.157 77.3271 118.995 85.1771 115.995 88.0411C115.995 88.0411 117.168 92.3889 125.137 92.3889C133.913 92.3889 129.318 88.0411 129.318 88.0411C124.531 86.9003 124.659 83.3502 125.496 80.0236L117.311 73.0352Z" fill="#E58A7B"/>
<path d="M114.878 89.5335C114.248 88.1614 113.562 86.5818 114.99 86.0872C116.585 85.5447 125.177 84.9942 128.145 86.0074C128.536 86.1159 128.902 86.301 129.222 86.552C129.541 86.8029 129.808 87.1148 130.006 87.4694C130.204 87.8241 130.33 88.2145 130.376 88.6181C130.422 89.0217 130.388 89.4305 130.275 89.8207L114.878 89.5335Z" fill="#407BFF"/>
<path d="M96.394 289.684C95.879 289.681 95.3657 289.625 94.8623 289.516C94.8365 289.512 94.8126 289.499 94.7941 289.481C94.7755 289.462 94.7631 289.438 94.7586 289.412C94.7533 289.386 94.7557 289.358 94.7656 289.332C94.7755 289.307 94.7924 289.285 94.8144 289.269C94.8862 289.221 96.5057 288.12 97.3593 288.311C97.4509 288.331 97.5371 288.37 97.6116 288.426C97.6861 288.483 97.7471 288.555 97.7901 288.638C97.8584 288.735 97.8951 288.851 97.8951 288.97C97.8951 289.088 97.8584 289.204 97.7901 289.301C97.5944 289.454 97.3702 289.567 97.1305 289.632C96.8908 289.698 96.6405 289.715 96.394 289.684ZM95.2532 289.317C96.1307 289.46 97.3274 289.46 97.5747 289.125C97.5747 289.125 97.6784 288.997 97.5747 288.774C97.5488 288.725 97.5126 288.683 97.4684 288.65C97.4243 288.617 97.3734 288.594 97.3194 288.583C96.5714 288.622 95.852 288.883 95.2532 289.333V289.317Z" fill="#407BFF"/>
<path d="M94.9336 289.539C94.9103 289.547 94.885 289.547 94.8618 289.539C94.8396 289.527 94.8217 289.508 94.8103 289.485C94.799 289.463 94.7947 289.437 94.7979 289.412C94.7979 289.34 94.9415 287.649 95.5957 287.09C95.6776 287.023 95.7719 286.973 95.8733 286.943C95.9746 286.913 96.0809 286.903 96.1861 286.915C96.2915 286.915 96.3938 286.951 96.4753 287.018C96.5568 287.085 96.6124 287.178 96.6328 287.282C96.7525 287.936 95.5798 289.212 94.9735 289.547L94.9336 289.539ZM96.1143 287.146C95.9973 287.148 95.8847 287.191 95.7951 287.266C95.3872 287.795 95.1456 288.434 95.1011 289.101C95.7074 288.646 96.4573 287.681 96.3855 287.29C96.3855 287.29 96.3855 287.17 96.1781 287.146H96.1143Z" fill="#407BFF"/>
<path d="M131.583 289.684C130.981 289.685 130.38 289.629 129.788 289.517C129.76 289.513 129.733 289.501 129.713 289.48C129.693 289.46 129.68 289.434 129.677 289.405C129.672 289.378 129.676 289.349 129.687 289.324C129.699 289.298 129.717 289.277 129.74 289.261C129.828 289.214 131.878 288.049 132.852 288.312C132.944 288.333 133.03 288.372 133.106 288.429C133.182 288.485 133.245 288.557 133.291 288.639C133.354 288.727 133.388 288.834 133.388 288.942C133.388 289.051 133.354 289.157 133.291 289.246C133.059 289.597 132.333 289.684 131.583 289.684ZM130.235 289.317C131.336 289.469 132.812 289.445 133.083 289.078C133.083 289.03 133.147 288.95 133.083 288.775C133.054 288.726 133.015 288.683 132.968 288.65C132.921 288.617 132.868 288.594 132.812 288.583C132.142 288.424 130.833 289.014 130.235 289.333V289.317Z" fill="#407BFF"/>
<path d="M129.812 289.54C129.787 289.548 129.759 289.548 129.733 289.54C129.713 289.526 129.697 289.506 129.687 289.484C129.677 289.461 129.674 289.437 129.677 289.412C129.729 288.581 130.048 287.789 130.586 287.155C130.693 287.058 130.82 286.987 130.958 286.945C131.096 286.904 131.242 286.894 131.384 286.915C131.767 286.955 131.879 287.147 131.903 287.306C132.006 287.968 130.61 289.237 129.9 289.548L129.812 289.54ZM131.24 287.147C131.063 287.145 130.892 287.21 130.762 287.33C130.312 287.832 130.033 288.463 129.964 289.133C130.682 288.702 131.639 287.705 131.56 287.306C131.56 287.306 131.56 287.179 131.288 287.147H131.24Z" fill="#407BFF"/>
<path d="M123.366 289.396H129.23L129.812 275.826H123.949L123.366 289.396Z" fill="#E58A7B"/>
<path d="M88.1768 289.396H94.0403L96.9841 275.826H91.1285L88.1768 289.396Z" fill="#E58A7B"/>
<path d="M94.4553 288.719H87.8737C87.7563 288.72 87.6426 288.76 87.5513 288.834C87.46 288.908 87.3964 289.011 87.3711 289.126L86.2144 294.335C86.188 294.462 86.1905 294.593 86.2218 294.719C86.2531 294.845 86.3123 294.962 86.3951 295.061C86.478 295.161 86.5822 295.241 86.7 295.294C86.8179 295.348 86.9464 295.375 87.076 295.372C89.3735 295.332 90.4904 295.197 93.3863 295.197C95.1653 295.197 98.835 295.388 101.3 295.388C103.765 295.388 104.076 292.995 103.071 292.732C98.5558 291.742 96.8566 290.378 95.4046 289.086C95.1461 288.848 94.8068 288.716 94.4553 288.719Z" fill="#263238"/>
<path d="M129.189 288.719H122.807C122.69 288.72 122.576 288.76 122.485 288.834C122.393 288.908 122.33 289.011 122.305 289.126L121.148 294.335C121.12 294.461 121.121 294.591 121.151 294.716C121.181 294.841 121.239 294.958 121.32 295.058C121.401 295.158 121.504 295.238 121.621 295.292C121.737 295.347 121.865 295.374 121.994 295.372C124.299 295.332 127.634 295.197 130.538 295.197C133.928 295.197 136.864 295.388 140.837 295.388C143.23 295.388 143.916 292.995 142.911 292.731C138.324 291.726 134.582 291.623 130.617 289.181C130.195 288.894 129.7 288.734 129.189 288.719Z" fill="#263238"/>
<path d="M136.936 91.3828C140.366 93.0741 143.932 94.8052 147.45 96.4247C150.968 98.0441 154.526 99.6157 158.06 100.964L159.377 101.435L159.712 101.554H159.792C159.792 101.554 159.792 101.554 159.831 101.594C160.309 101.644 160.791 101.586 161.243 101.427C162.83 100.897 164.346 100.177 165.759 99.2807C168.983 97.2554 172.082 95.0362 175.037 92.6353L178.268 95.6189C175.806 99.0247 172.943 102.121 169.74 104.841C167.982 106.359 166.015 107.616 163.9 108.575C162.514 109.202 161.01 109.529 159.488 109.532C159.006 109.523 158.526 109.472 158.052 109.38L157.669 109.293L157.406 109.221L157.023 109.117L155.492 108.694C151.543 107.512 147.665 106.106 143.876 104.482C140.111 102.887 136.489 101.179 132.827 99.2408L136.936 91.3828Z" fill="#E58A7B"/>
<path d="M105.504 89.3659C100.007 90.6264 93.7051 105.6 93.7051 105.6L104.738 113.163C107.485 109.228 109.922 105.086 112.03 100.774C115.285 93.9212 111.12 88.0815 105.504 89.3659Z" fill="#263238"/>
<path d="M109.437 98.9141L104.22 112.803L104.738 113.162C104.738 113.162 106.996 109.971 109.437 105.719V98.9141Z" fill="#407BFF"/>
<path opacity="0.8" d="M109.437 98.9141L104.22 112.803L104.738 113.162C104.738 113.162 106.996 109.971 109.437 105.719V98.9141Z" fill="black"/>
<path d="M138.332 89.6686C138.332 89.6686 144.57 96.7129 138.683 140.327H107.331C107.115 135.54 110.139 112.038 105.504 89.3655C108.969 88.6983 112.473 88.256 115.994 88.0412C120.432 87.7857 124.88 87.7857 129.317 88.0412C132.36 88.3478 135.374 88.8919 138.332 89.6686Z" fill="#263238"/>
<path d="M141.077 103.088L133.538 101.492C133.65 101.628 138.325 107.491 141.189 111.137C141.244 108.026 141.205 105.401 141.077 103.088Z" fill="#407BFF"/>
<path opacity="0.8" d="M141.077 103.088L133.538 101.492C133.65 101.628 138.325 107.491 141.189 111.137C141.244 108.026 141.205 105.401 141.077 103.088Z" fill="black"/>
<path d="M128.504 97.4712C130.227 102.8 147.65 108.64 147.65 108.64L152.835 96.3464C148.463 93.6951 143.821 91.5182 138.986 89.8526C131.918 87.6029 126.605 91.6236 128.504 97.4712Z" fill="#263238"/>
<path d="M174.543 93.4336L176.258 87.4902L183.079 90.5776C183.079 90.5776 181.571 95.1886 177.447 96.2896L174.543 93.4336Z" fill="#E58A7B"/>
<path d="M180.342 82.5371L184.977 87.1083L183.079 90.5467L176.258 87.4593L180.342 82.5371Z" fill="#E58A7B"/>
<path d="M129.812 275.834L129.509 282.822H123.646L123.949 275.834H129.812Z" fill="#CF6F64"/>
<path d="M91.1202 275.834H96.9838L95.468 282.822H89.6045L91.1202 275.834Z" fill="#CF6F64"/>
<path d="M116.808 66.5815C117.16 72.3892 117.072 75.8037 120 78.7873C124.411 83.2707 131.575 80.6062 132.963 74.7985C134.208 69.5811 133.418 60.9653 127.73 58.6518C126.479 58.1377 125.117 57.9521 123.774 58.1128C122.431 58.2734 121.151 58.775 120.057 59.5697C118.962 60.3644 118.089 61.4258 117.521 62.6531C116.952 63.8804 116.707 65.2327 116.808 66.5815Z" fill="#E58A7B"/>
<path d="M128.089 62.7203C132.469 64.0126 136.139 57.7981 135.46 62.1937C134.782 66.5894 139.561 66.1108 139.561 66.1108C139.561 66.1108 135.811 64.6907 140.271 60.9891C145.72 56.4658 137.981 53.6896 134.591 56.1467C130.028 59.4654 129.134 53.6098 123.255 52.0382C119.266 50.9852 114.36 53.4901 114.272 56.3701C114.16 59.8882 111.137 57.0561 110.913 62.2895C110.762 65.7039 114.83 76.9603 119.218 77.3433C125.823 77.9256 128.041 69.5491 128.089 62.7203Z" fill="#263238"/>
<path d="M124.643 68.272C124.956 69.6897 125.73 70.9635 126.845 71.8938C128.321 73.0904 129.501 72.0214 129.469 70.2983C129.43 68.7426 128.624 66.2456 126.965 65.7191C125.305 65.1926 124.268 66.5727 124.643 68.272Z" fill="#E58A7B"/>
<path d="M115.548 59.6399C114.833 58.5543 114.399 57.3074 114.286 56.0121C114.173 54.7167 114.385 53.4137 114.902 52.2207C114.902 52.2207 108.664 56.9195 115.548 59.6399Z" fill="#263238"/>
<path d="M110.554 59.0662C111.172 58.8044 111.847 58.703 112.515 58.7714C113.183 58.8397 113.822 59.0756 114.375 59.4571C114.375 59.4571 112.604 55.8432 110.554 59.0662Z" fill="#263238"/>
<path d="M127.563 140.327C127.563 140.327 120.909 185.113 117.271 201.93C113.283 220.279 98.2128 281.515 98.2128 281.515H87.459C87.459 281.515 97.3991 221.747 99.7206 203.526C102.194 183.781 107.371 140.295 107.371 140.295L127.563 140.327Z" fill="#407BFF"/>
<path d="M99.9116 277.518C99.9595 277.518 98.8027 281.642 98.8027 281.642H86.7246L86.948 277.964L99.9116 277.518Z" fill="#407BFF"/>
<path opacity="0.2" d="M99.9116 277.518C99.9595 277.518 98.8027 281.642 98.8027 281.642H86.7246L86.948 277.964L99.9116 277.518Z" fill="black"/>
<path d="M123.359 156.282C115.668 157.79 116.482 186.47 117.407 201.22C119.665 190.762 122.856 170.73 125.09 156.458C124.549 156.204 123.939 156.142 123.359 156.282Z" fill="#407BFF"/>
<path opacity="0.2" d="M123.359 156.282C115.668 157.79 116.482 186.47 117.407 201.22C119.665 190.762 122.856 170.73 125.09 156.458C124.549 156.204 123.939 156.142 123.359 156.282Z" fill="black"/>
<path d="M138.683 140.326C138.683 140.326 139.481 184.139 138.851 202.017C138.188 220.605 131.671 281.474 131.671 281.474H121.77C121.77 281.474 121.403 221.69 120.973 203.437C120.494 183.533 118.093 140.326 118.093 140.326H138.683Z" fill="#407BFF"/>
<path d="M129.629 274.343C129.602 274.339 129.578 274.326 129.56 274.305C129.542 274.285 129.533 274.258 129.533 274.231C131.288 257.383 135.413 216.625 135.915 202.01C136.45 187.036 135.963 153.594 135.804 143.693C135.804 143.681 135.806 143.668 135.811 143.657C135.816 143.645 135.823 143.635 135.832 143.626C135.841 143.617 135.851 143.61 135.863 143.605C135.874 143.6 135.887 143.598 135.899 143.598C135.926 143.598 135.951 143.607 135.97 143.625C135.989 143.643 136.001 143.667 136.003 143.693C136.163 153.586 136.649 187.036 136.115 202.018C135.596 216.641 131.472 257.407 129.733 274.255C129.732 274.268 129.728 274.28 129.722 274.291C129.717 274.303 129.709 274.313 129.699 274.321C129.689 274.329 129.678 274.335 129.666 274.339C129.654 274.343 129.642 274.344 129.629 274.343Z" fill="#407BFF"/>
<path opacity="0.2" d="M129.629 274.343C129.602 274.339 129.578 274.326 129.56 274.305C129.542 274.285 129.533 274.258 129.533 274.231C131.288 257.383 135.413 216.625 135.915 202.01C136.45 187.036 135.963 153.594 135.804 143.693C135.804 143.681 135.806 143.668 135.811 143.657C135.816 143.645 135.823 143.635 135.832 143.626C135.841 143.617 135.851 143.61 135.863 143.605C135.874 143.6 135.887 143.598 135.899 143.598C135.926 143.598 135.951 143.607 135.97 143.625C135.989 143.643 136.001 143.667 136.003 143.693C136.163 153.586 136.649 187.036 136.115 202.018C135.596 216.641 131.472 257.407 129.733 274.255C129.732 274.268 129.728 274.28 129.722 274.291C129.717 274.303 129.709 274.313 129.699 274.321C129.689 274.329 129.678 274.335 129.666 274.339C129.654 274.343 129.642 274.344 129.629 274.343Z" fill="black"/>
<path d="M133.601 277.518C133.649 277.518 133.043 281.642 133.043 281.642H120.965L120.638 277.964L133.601 277.518Z" fill="#407BFF"/>
<path opacity="0.2" d="M133.601 277.518C133.649 277.518 133.043 281.642 133.043 281.642H120.965L120.638 277.964L133.601 277.518Z" fill="black"/>
</svg>
